<svg xmlns="http://www.w3.org/2000/svg" style="isolation:isolate" viewBox="194.659 329 36 36" width="36" height="36"><g filter="url(#a)"><path d="M196.659 345c0-8.831 7.17-16 16-16 8.831 0 16 7.169 16 16s-7.169 16-16 16c-8.83 0-16-7.169-16-16z" fill="#FF2B8C"/><path d="M199.74 345.498q13.561-13.996 25.839 0-11.828 12.004-25.839 0z" fill="#FFF"/><path d="M208.659 345c0-2.208 1.793-4 4-4 2.208 0 4 1.792 4 4s-1.792 4-4 4c-2.207 0-4-1.792-4-4z" fill="#731062"/></g><defs><filter id="a" x="-200%" y="-200%" width="400%" height="400%"><feOffset xmlns="http://www.w3.org/2000/svg" in="SourceAlpha" result="offOut" dy="2"/><feGaussianBlur xmlns="http://www.w3.org/2000/svg" in="offOut" result="blurOut" stdDeviation="1"/><feComponentTransfer xmlns="http://www.w3.org/2000/svg" in="blurOut" result="opacOut"><feFuncA xmlns="http://www.w3.org/2000/svg" type="table" tableValues="0 0.5"/></feComponentTransfer><feBlend xmlns="http://www.w3.org/2000/svg" in="SourceGraphic" in2="opacOut"/></filter></defs></svg>