<svg xmlns="http://www.w3.org/2000/svg" style="isolation:isolate" viewBox="271.514 252.509 59.983 59.983" width="59.983" height="59.983"><path vector-effect="non-scaling-stroke" stroke-width="6" stroke="#221407" stroke-linecap="round" stroke-miterlimit="3" d="M314.425 277.5l13-13M324.673 295.5l-13-13M288.585 284l-13-13M304.176 275l13-13"/><path fill="#6F471F" vector-effect="non-scaling-stroke" stroke-width="1.9997" stroke="#6F471F" stroke-linejoin="round" stroke-linecap="round" stroke-miterlimit="3" d="M301.503 253.45l28.987 28.988-28.987 28.987-28.987-28.987z"/><path fill="#331F0D" vector-effect="non-scaling-stroke" stroke-width="1.9997" stroke="#331F0D" stroke-linejoin="round" stroke-linecap="round" stroke-miterlimit="3" d="M301.503 259.942l22.494 22.495-22.494 22.494-22.495-22.494z"/><path fill="#221509" vector-effect="non-scaling-stroke" stroke-width="1.9997" stroke="#221509" stroke-linejoin="round" stroke-linecap="round" stroke-miterlimit="3" d="M301.502 266.064l16.373 16.374-16.373 16.373-16.374-16.373z"/><path d="M288.585 282.998q13.562-13.996 25.84 0-11.829 12.004-25.84 0z" fill="#6F471F"/><path d="M296.505 282.5c0-2.76 2.24-5 5-5 2.759 0 5 2.24 5 5s-2.241 5-5 5c-2.76 0-5-2.24-5-5z" fill="#221509"/></svg>