<svg xmlns="http://www.w3.org/2000/svg" style="isolation:isolate" viewBox="126.495 272.495 122.01 122.01" width="122.01" height="122.01"><path d="M187.5 272.495c33.669 0 61.005 27.336 61.005 61.005 0 33.669-27.336 61.005-61.005 61.005-33.669 0-61.005-27.336-61.005-61.005 0-33.669 27.336-61.005 61.005-61.005zm0 4.951c30.534 0 55.326 25.118 55.326 56.054 0 30.939-24.792 56.054-55.326 56.056-30.534 0-55.326-25.117-55.326-56.056 0-30.936 24.792-56.054 55.326-56.054zm0 3.708c28.89 0 52.346 23.456 52.346 52.346 0 28.89-23.456 52.346-52.346 52.346-28.89 0-52.346-23.456-52.346-52.346 0-28.89 23.456-52.346 52.346-52.346z" fill-rule="evenodd" fill="#C3CFD9"/></svg>