<svg xmlns="http://www.w3.org/2000/svg" style="isolation:isolate" viewBox="108.5 271.875 105 282.125" width="105" height="282.125"><path d="M108.5 501.5c0-28.976 23.524-52.5 52.5-52.5s52.5 23.524 52.5 52.5S189.976 554 161 554s-52.5-23.524-52.5-52.5z" fill="#191006"/><path d="M117.875 501.5c0-23.801 19.324-43.125 43.125-43.125s43.125 19.324 43.125 43.125-19.324 43.125-43.125 43.125-43.125-19.324-43.125-43.125z" fill="#4A320A"/><path fill="#4A320A" d="M117.875 315h86.25v186.5h-86.25z"/><path d="M117.875 315c0-23.801 19.324-43.125 43.125-43.125s43.125 19.324 43.125 43.125-19.324 43.125-43.125 43.125-43.125-19.324-43.125-43.125z" fill="#724A1C"/><path d="M124.828 315c0-19.964 16.208-36.172 36.172-36.172s36.172 16.208 36.172 36.172-16.208 36.172-36.172 36.172-36.172-16.208-36.172-36.172z" fill="#371E09"/><path d="M130.437 315c0-16.868 13.695-30.562 30.563-30.562s30.563 13.694 30.563 30.562c0 16.868-13.695 30.563-30.563 30.563S130.438 331.868 130.437 315z" fill="#4A320A"/><path d="M135.437 315c0-14.108 11.455-25.562 25.563-25.562 14.108 0 25.563 11.454 25.563 25.562S175.108 340.563 161 340.563c-14.108 0-25.563-11.455-25.563-25.563z" fill="#553D0E"/><path d="M143.719 315c0-9.538 7.743-17.281 17.281-17.281 9.538 0 17.281 7.743 17.281 17.281 0 9.538-7.743 17.281-17.281 17.281-9.538 0-17.281-7.743-17.281-17.281z" fill="#785C1B"/><path d="M148.719 315c0-6.778 5.503-12.281 12.281-12.281 6.778 0 12.281 5.503 12.281 12.281 0 6.778-5.503 12.281-12.281 12.281-6.778 0-12.281-5.503-12.281-12.281z" fill="#76372D"/><path d="M153.719 315a7.284 7.284 0 0 1 7.281-7.281 7.284 7.284 0 0 1 7.281 7.281 7.284 7.284 0 0 1-7.281 7.281 7.284 7.284 0 0 1-7.281-7.281z" fill="#965213"/><path vector-effect="non-scaling-stroke" stroke-width="8" stroke="#221509" stroke-linecap="round" stroke-miterlimit="3" d="M140 377v98"/><path vector-effect="non-scaling-stroke" stroke-width="7" stroke="#221509" stroke-linecap="round" stroke-miterlimit="3" d="M183 459v65M140 484.417V495"/></svg>