<?xml version="1.0" standalone="no"?><!-- Generator: Gravit.io --><svg xmlns="http://www.w3.org/2000/svg" xmlns:xlink="http://www.w3.org/1999/xlink" style="isolation:isolate" viewBox="140 229 36 36" width="36" height="36"><g id="eye" filter="url(#sOuouFLlbByDOzkURuEVvvakpvGONwEf)"><path d=" M 142 245 C 142 236.169 149.169 229 158 229 C 166.831 229 174 236.169 174 245 C 174 253.831 166.831 261 158 261 C 149.169 261 142 253.831 142 245 Z " fill="rgb(255,43,140)"/><path d=" M 145.08 245.498 Q 158.642 231.502 170.92 245.498 Q 159.092 257.502 145.08 245.498 Z " fill="rgb(255,255,255)"/><path d=" M 153 245 C 153 242.24 155.24 240 158 240 C 160.76 240 163 242.24 163 245 C 163 247.76 160.76 250 158 250 C 155.24 250 153 247.76 153 245 Z " fill="rgb(115,16,98)"/></g><defs><filter id="sOuouFLlbByDOzkURuEVvvakpvGONwEf" x="-200%" y="-200%" width="400%" height="400%"><feOffset xmlns="http://www.w3.org/2000/svg" in="SourceAlpha" result="offOut" dx="0" dy="2"/><feGaussianBlur xmlns="http://www.w3.org/2000/svg" in="offOut" result="blurOut" stdDeviation="1"/><feComponentTransfer xmlns="http://www.w3.org/2000/svg" in="blurOut" result="opacOut"><feFuncA xmlns="http://www.w3.org/2000/svg" type="table" tableValues="0 0.5"/></feComponentTransfer><feBlend xmlns="http://www.w3.org/2000/svg" in="SourceGraphic" in2="opacOut" mode="normal"/></filter></defs></svg>