<?xml version="1.0" standalone="no"?><!-- Generator: Gravit.io --><svg xmlns="http://www.w3.org/2000/svg" xmlns:xlink="http://www.w3.org/1999/xlink" style="isolation:isolate" viewBox="194.659 329 36 36" width="36" height="36"><g id="eye" filter="url(#izKSWXzGVUohfF6sng4ItddM3L6UwtrH)"><path d=" M 196.659 345 C 196.659 336.169 203.829 329 212.659 329 C 221.49 329 228.659 336.169 228.659 345 C 228.659 353.831 221.49 361 212.659 361 C 203.829 361 196.659 353.831 196.659 345 Z " fill="rgb(255,43,140)"/><path d=" M 199.74 345.498 Q 213.301 331.502 225.579 345.498 Q 213.751 357.502 199.74 345.498 Z " fill="rgb(255,255,255)"/><path d=" M 208.659 345 C 208.659 342.792 210.452 341 212.659 341 C 214.867 341 216.659 342.792 216.659 345 C 216.659 347.208 214.867 349 212.659 349 C 210.452 349 208.659 347.208 208.659 345 Z " fill="rgb(115,16,98)"/></g><defs><filter id="izKSWXzGVUohfF6sng4ItddM3L6UwtrH" x="-200%" y="-200%" width="400%" height="400%"><feOffset xmlns="http://www.w3.org/2000/svg" in="SourceAlpha" result="offOut" dx="0" dy="2"/><feGaussianBlur xmlns="http://www.w3.org/2000/svg" in="offOut" result="blurOut" stdDeviation="1"/><feComponentTransfer xmlns="http://www.w3.org/2000/svg" in="blurOut" result="opacOut"><feFuncA xmlns="http://www.w3.org/2000/svg" type="table" tableValues="0 0.5"/></feComponentTransfer><feBlend xmlns="http://www.w3.org/2000/svg" in="SourceGraphic" in2="opacOut" mode="normal"/></filter></defs></svg>