<?xml version="1.0" standalone="no"?><!-- Generator: Gravit.io --><svg xmlns="http://www.w3.org/2000/svg" xmlns:xlink="http://www.w3.org/1999/xlink" style="isolation:isolate" viewBox="183 230 36 36" width="36" height="36"><g id="eye_closed" filter="url(#TKPJ4WCH5pRwsiEOvWv4dkvQ6Y0Yh8eu)"><path d=" M 185 246 C 185 237.169 192.169 230 201 230 C 209.831 230 217 237.169 217 246 C 217 254.831 209.831 262 201 262 C 192.169 262 185 254.831 185 246 Z " fill="rgb(255,43,140)"/><path d=" M 190 247.538 C 198.649 248.416 203.442 248.436 212 247.538 Q 204.011 248.462 190 247.538 Z " fill="rgb(255,255,255)" vector-effect="non-scaling-stroke" stroke-width="4" stroke="rgb(115,16,98)" stroke-linejoin="round" stroke-linecap="round" stroke-miterlimit="3"/><clipPath id="_clipPath_nOKz4QFgdDMjdbWhmiQSupuWvZHLbUXg"><path d=" M 190 247.538 C 198.649 248.416 203.442 248.436 212 247.538 Q 204.011 248.462 190 247.538 Z " fill="rgb(255,255,255)" vector-effect="non-scaling-stroke" stroke-width="4" stroke="rgb(115,16,98)" stroke-linejoin="round" stroke-linecap="round" stroke-miterlimit="3"/></clipPath><g clip-path="url(#_clipPath_nOKz4QFgdDMjdbWhmiQSupuWvZHLbUXg)"><path d=" M 197 248.961 C 197 246.753 198.792 244.961 201 244.961 C 203.208 244.961 205 246.753 205 248.961 C 205 251.169 203.208 252.961 201 252.961 C 198.792 252.961 197 251.169 197 248.961 Z " fill="rgb(115,16,98)"/></g></g><defs><filter id="TKPJ4WCH5pRwsiEOvWv4dkvQ6Y0Yh8eu" x="-200%" y="-200%" width="400%" height="400%"><feOffset xmlns="http://www.w3.org/2000/svg" in="SourceAlpha" result="offOut" dx="0" dy="2"/><feGaussianBlur xmlns="http://www.w3.org/2000/svg" in="offOut" result="blurOut" stdDeviation="1"/><feComponentTransfer xmlns="http://www.w3.org/2000/svg" in="blurOut" result="opacOut"><feFuncA xmlns="http://www.w3.org/2000/svg" type="table" tableValues="0 0.5"/></feComponentTransfer><feBlend xmlns="http://www.w3.org/2000/svg" in="SourceGraphic" in2="opacOut" mode="normal"/></filter></defs></svg>