<?xml version="1.0" standalone="no"?><!-- Generator: Gravit.io --><svg xmlns="http://www.w3.org/2000/svg" xmlns:xlink="http://www.w3.org/1999/xlink" style="isolation:isolate" viewBox="246.109 398.945 26.891 25.534" width="26.891" height="25.534"><defs><filter id="Wz6S6EdNUpx3pBvcM9hnDhFPS8uoNhAW" x="-200%" y="-200%" width="400%" height="400%"><feOffset xmlns="http://www.w3.org/2000/svg" in="SourceAlpha" result="offOut" dx="1" dy="2"/><feGaussianBlur xmlns="http://www.w3.org/2000/svg" in="offOut" result="blurOut" stdDeviation="0.5"/><feComponentTransfer xmlns="http://www.w3.org/2000/svg" in="blurOut" result="opacOut"><feFuncA xmlns="http://www.w3.org/2000/svg" type="table" tableValues="0 0.5"/></feComponentTransfer><feBlend xmlns="http://www.w3.org/2000/svg" in="SourceGraphic" in2="opacOut" mode="normal"/></filter></defs><g filter="url(#Wz6S6EdNUpx3pBvcM9hnDhFPS8uoNhAW)"><path d=" M 247.547 410.327 L 258.639 421.479 L 269.532 410.327 C 269.532 410.327 269.532 410.327 269.532 410.326 C 271.694 407.531 271.443 403.565 268.944 401.065 C 266.446 398.565 262.48 398.311 259.683 400.472 C 259.008 400.992 258.638 401.279 258.638 401.279 C 258.638 401.279 258.264 400.986 257.585 400.455 C 254.777 398.257 250.775 398.482 248.232 400.982 C 245.689 403.481 245.395 407.478 247.544 410.323 C 247.545 410.326 247.546 410.327 247.546 410.327 L 247.547 410.327 Z " fill-rule="evenodd" fill="rgb(255,77,106)"/></g></svg>