<?xml version="1.0" standalone="no"?><!-- Generator: Gravit.io --><svg xmlns="http://www.w3.org/2000/svg" xmlns:xlink="http://www.w3.org/1999/xlink" style="isolation:isolate" viewBox="51 85 115 115" width="115" height="115"><path d=" M 51 142.5 C 51 110.765 76.765 85 108.5 85 C 140.235 85 166 110.765 166 142.5 C 166 174.235 140.235 200 108.5 200 C 76.765 200 51 174.235 51 142.5 Z " fill="rgb(25,42,19)"/><clipPath id="_clipPath_uL4kGurjCBfdhRxFhYd86eHDWMwEGoXS"><path d=" M 51 142.5 C 51 110.765 76.765 85 108.5 85 C 140.235 85 166 110.765 166 142.5 C 166 174.235 140.235 200 108.5 200 C 76.765 200 51 174.235 51 142.5 Z " fill="rgb(25,42,19)"/></clipPath><g clip-path="url(#_clipPath_uL4kGurjCBfdhRxFhYd86eHDWMwEGoXS)"><path d=" M 51 157.5 C 51 125.765 76.765 100 108.5 100 C 140.235 100 166 125.765 166 157.5 C 166 189.235 140.235 215 108.5 215 C 76.765 215 51 189.235 51 157.5 Z " fill="rgb(0,0,0)"/></g></svg>