<?xml version="1.0" standalone="no"?><!-- Generator: Gravit.io --><svg xmlns="http://www.w3.org/2000/svg" xmlns:xlink="http://www.w3.org/1999/xlink" style="isolation:isolate" viewBox="271.514 252.509 59.983 59.983" width="59.983" height="59.983"><g id="powerup"><line x1="314.425" y1="277.5" x2="327.425" y2="264.5" vector-effect="non-scaling-stroke" stroke-width="6" stroke="rgb(34,20,7)" stroke-linejoin="miter" stroke-linecap="round" stroke-miterlimit="3"/><line x1="324.673" y1="295.5" x2="311.673" y2="282.5" vector-effect="non-scaling-stroke" stroke-width="6" stroke="rgb(34,20,7)" stroke-linejoin="miter" stroke-linecap="round" stroke-miterlimit="3"/><line x1="288.585" y1="284" x2="275.585" y2="271" vector-effect="non-scaling-stroke" stroke-width="6" stroke="rgb(34,20,7)" stroke-linejoin="miter" stroke-linecap="round" stroke-miterlimit="3"/><line x1="304.176" y1="275" x2="317.176" y2="262" vector-effect="non-scaling-stroke" stroke-width="6" stroke="rgb(34,20,7)" stroke-linejoin="miter" stroke-linecap="round" stroke-miterlimit="3"/><rect x="281.005" y="262" width="41" height="41" transform="matrix(0.707,0.707,-0.707,0.707,288.066,-130.454)" fill="rgb(111,71,31)" vector-effect="non-scaling-stroke" stroke-width="2" stroke="rgb(111,71,31)" stroke-linejoin="round" stroke-linecap="round" stroke-miterlimit="3"/><rect x="285.596" y="266.591" width="31.817" height="31.817" transform="matrix(0.707,0.707,-0.707,0.707,288.066,-130.454)" fill="rgb(51,31,13)" vector-effect="non-scaling-stroke" stroke-width="2" stroke="rgb(51,31,13)" stroke-linejoin="round" stroke-linecap="round" stroke-miterlimit="3"/><rect x="289.925" y="270.921" width="23.159" height="23.159" transform="matrix(0.707,0.707,-0.707,0.707,288.066,-130.454)" fill="rgb(34,21,9)" vector-effect="non-scaling-stroke" stroke-width="2" stroke="rgb(34,21,9)" stroke-linejoin="round" stroke-linecap="round" stroke-miterlimit="3"/><path d=" M 288.585 282.998 Q 302.147 269.002 314.425 282.998 Q 302.596 295.002 288.585 282.998 Z " fill="rgb(111,71,31)"/><path d=" M 296.505 282.5 C 296.505 279.74 298.745 277.5 301.505 277.5 C 304.264 277.5 306.505 279.74 306.505 282.5 C 306.505 285.26 304.264 287.5 301.505 287.5 C 298.745 287.5 296.505 285.26 296.505 282.5 Z " fill="rgb(34,21,9)"/></g></svg>