<?xml version="1.0" standalone="no"?><!-- Generator: Gravit.io --><svg xmlns="http://www.w3.org/2000/svg" xmlns:xlink="http://www.w3.org/1999/xlink" style="isolation:isolate" viewBox="126.495 272.495 122.01 122.01" width="122.01" height="122.01"><path d=" M 187.5 272.495 C 221.169 272.495 248.505 299.831 248.505 333.5 C 248.505 367.169 221.169 394.505 187.5 394.505 C 153.831 394.505 126.495 367.169 126.495 333.5 C 126.495 299.831 153.831 272.495 187.5 272.495 Z  M 187.5 277.446 C 218.034 277.446 242.826 302.564 242.826 333.5 C 242.826 364.439 218.034 389.554 187.5 389.556 C 156.966 389.556 132.174 364.439 132.174 333.5 C 132.174 302.564 156.966 277.446 187.5 277.446 Z  M 187.5 281.154 C 216.39 281.154 239.846 304.61 239.846 333.5 C 239.846 362.39 216.39 385.846 187.5 385.846 C 158.61 385.846 135.154 362.39 135.154 333.5 C 135.154 304.61 158.61 281.154 187.5 281.154 Z " fill-rule="evenodd" fill="rgb(195,207,217)"/></svg>