<?xml version="1.0" standalone="no"?><!-- Generator: Gravit.io --><svg xmlns="http://www.w3.org/2000/svg" xmlns:xlink="http://www.w3.org/1999/xlink" style="isolation:isolate" viewBox="187.5 264 122.547 139.683" width="122.547" height="139.683"><g id="stamp2"><path d=" M 248.772 264 L 268.13 300.315 L 309.26 298.921 L 287.491 333.841 L 309.26 368.762 L 268.13 367.37 L 248.772 403.683 L 229.416 367.37 L 188.287 368.762 L 210.056 333.841 L 188.287 298.921 L 229.416 300.315 L 248.772 264 Z " fill-rule="evenodd" fill="rgb(195,207,217)"/><path d=" M 236.179 285.432 C 236.179 285.344 236.174 285.253 236.174 285.165 C 236.174 278.211 241.821 272.567 248.772 272.567 C 255.723 272.567 261.37 278.211 261.37 285.165 C 261.37 285.253 261.37 285.344 261.37 285.432 L 261.336 286.954 L 262.071 285.621 C 262.115 285.542 262.159 285.464 262.203 285.385 C 265.679 279.366 273.392 277.297 279.414 280.775 C 285.434 284.251 287.502 291.964 284.022 297.984 C 283.978 298.062 283.931 298.138 283.885 298.214 L 283.096 299.518 L 284.4 298.729 C 284.473 298.68 284.551 298.635 284.63 298.591 C 290.65 295.116 298.363 297.182 301.836 303.204 C 305.316 309.224 303.248 316.937 297.228 320.412 C 297.15 320.457 297.074 320.501 296.995 320.545 L 295.659 321.278 L 297.179 321.246 C 297.27 321.246 297.358 321.241 297.449 321.241 C 304.402 321.241 310.047 326.888 310.047 333.841 C 310.047 340.795 304.4 346.439 297.449 346.439 C 297.36 346.439 297.272 346.439 297.179 346.437 L 295.659 346.403 L 296.995 347.135 C 297.074 347.18 297.15 347.224 297.228 347.268 C 303.25 350.748 305.316 358.457 301.836 364.479 C 298.36 370.498 290.647 372.567 284.63 369.089 C 284.551 369.045 284.475 368.998 284.4 368.952 L 283.096 368.162 L 283.885 369.466 C 283.934 369.54 283.978 369.618 284.022 369.697 C 287.498 375.719 285.431 383.43 279.414 386.905 C 273.392 390.385 265.679 388.317 262.203 382.295 C 262.159 382.216 262.115 382.14 262.071 382.062 L 261.336 380.726 L 261.37 382.248 C 261.37 382.339 261.37 382.427 261.37 382.515 C 261.37 389.469 255.723 395.113 248.772 395.116 C 241.819 395.116 236.174 389.469 236.174 382.515 C 236.174 382.427 236.174 382.339 236.179 382.248 L 236.211 380.726 L 235.475 382.062 C 235.431 382.14 235.387 382.216 235.343 382.295 C 231.868 388.317 224.154 390.383 218.137 386.905 C 212.115 383.43 210.049 375.719 213.525 369.697 C 213.569 369.618 213.615 369.542 213.662 369.466 L 214.451 368.162 L 213.147 368.952 C 213.074 369.001 212.995 369.045 212.917 369.089 C 206.897 372.564 199.184 370.498 195.711 364.479 C 192.23 358.457 194.299 350.746 200.319 347.268 C 200.397 347.224 200.475 347.18 200.551 347.135 L 201.887 346.403 L 200.368 346.437 C 200.277 346.437 200.189 346.437 200.098 346.439 C 193.145 346.439 187.5 340.795 187.5 333.841 C 187.5 326.888 193.145 321.243 200.098 321.241 C 200.186 321.241 200.275 321.241 200.368 321.246 L 201.887 321.278 L 200.551 320.545 C 200.478 320.501 200.397 320.457 200.319 320.412 C 194.297 316.937 192.23 309.224 195.711 303.204 C 199.186 297.182 206.9 295.116 212.917 298.591 C 212.995 298.635 213.071 298.682 213.147 298.729 L 214.451 299.518 L 213.662 298.214 C 213.613 298.14 213.569 298.062 213.525 297.984 C 210.049 291.964 212.115 284.251 218.137 280.775 C 224.157 277.3 231.87 279.366 235.343 285.385 C 235.387 285.464 235.431 285.542 235.475 285.621 L 236.211 286.954 L 236.179 285.432 Z " fill-rule="evenodd" fill="rgb(195,207,217)"/></g></svg>