<?xml version="1.0" standalone="no"?><!-- Generator: Gravit.io --><svg xmlns="http://www.w3.org/2000/svg" xmlns:xlink="http://www.w3.org/1999/xlink" style="isolation:isolate" viewBox="108.5 271.875 105 282.125" width="105" height="282.125"><g id="tree"><path d=" M 108.5 501.5 C 108.5 472.524 132.024 449 161 449 C 189.976 449 213.5 472.524 213.5 501.5 C 213.5 530.476 189.976 554 161 554 C 132.024 554 108.5 530.476 108.5 501.5 Z " fill="rgb(25,16,6)"/><path d=" M 117.875 501.5 C 117.875 477.699 137.199 458.375 161 458.375 C 184.801 458.375 204.125 477.699 204.125 501.5 C 204.125 525.301 184.801 544.625 161 544.625 C 137.199 544.625 117.875 525.301 117.875 501.5 Z " fill="rgb(74,50,10)"/><rect x="117.875" y="315" width="86.25" height="186.5" transform="matrix(1,0,0,1,0,0)" fill="rgb(74,50,10)"/><path d=" M 117.875 315 C 117.875 291.199 137.199 271.875 161 271.875 C 184.801 271.875 204.125 291.199 204.125 315 C 204.125 338.801 184.801 358.125 161 358.125 C 137.199 358.125 117.875 338.801 117.875 315 Z " fill="rgb(114,74,28)"/><path d=" M 124.828 315 C 124.828 295.036 141.036 278.828 161 278.828 C 180.964 278.828 197.172 295.036 197.172 315 C 197.172 334.964 180.964 351.172 161 351.172 C 141.036 351.172 124.828 334.964 124.828 315 Z " fill="rgb(55,30,9)"/><path d=" M 130.437 315 C 130.437 298.132 144.132 284.438 161 284.438 C 177.868 284.438 191.563 298.132 191.563 315 C 191.563 331.868 177.868 345.563 161 345.563 C 144.132 345.563 130.438 331.868 130.437 315 Z " fill="rgb(74,50,10)"/><path d=" M 135.437 315 C 135.437 300.892 146.892 289.438 161 289.438 C 175.108 289.438 186.563 300.892 186.563 315 C 186.563 329.108 175.108 340.563 161 340.563 C 146.892 340.563 135.437 329.108 135.437 315 Z " fill="rgb(85,61,14)"/><path d=" M 143.719 315 C 143.719 305.462 151.462 297.719 161 297.719 C 170.538 297.719 178.281 305.462 178.281 315 C 178.281 324.538 170.538 332.281 161 332.281 C 151.462 332.281 143.719 324.538 143.719 315 Z " fill="rgb(120,92,27)"/><path d=" M 148.719 315 C 148.719 308.222 154.222 302.719 161 302.719 C 167.778 302.719 173.281 308.222 173.281 315 C 173.281 321.778 167.778 327.281 161 327.281 C 154.222 327.281 148.719 321.778 148.719 315 Z " fill="rgb(118,55,45)"/><path d=" M 153.719 315 C 153.719 310.981 156.981 307.719 161 307.719 C 165.019 307.719 168.281 310.981 168.281 315 C 168.281 319.019 165.019 322.281 161 322.281 C 156.981 322.281 153.719 319.019 153.719 315 Z " fill="rgb(150,82,19)"/><line x1="140" y1="377" x2="140" y2="475" vector-effect="non-scaling-stroke" stroke-width="8" stroke="rgb(34,21,9)" stroke-linejoin="miter" stroke-linecap="round" stroke-miterlimit="3"/><line x1="183" y1="459" x2="183" y2="524" vector-effect="non-scaling-stroke" stroke-width="7" stroke="rgb(34,21,9)" stroke-linejoin="miter" stroke-linecap="round" stroke-miterlimit="3"/><line x1="140" y1="484.417" x2="140" y2="495" vector-effect="non-scaling-stroke" stroke-width="7" stroke="rgb(34,21,9)" stroke-linejoin="miter" stroke-linecap="round" stroke-miterlimit="3"/></g></svg>