<?xml version="1.0" standalone="no"?><!-- Generator: Gravit.io --><svg xmlns="http://www.w3.org/2000/svg" xmlns:xlink="http://www.w3.org/1999/xlink" style="isolation:isolate" viewBox="22 333.736 123 157.264" width="123" height="157.264"><g id="tree"><g id="tree"><path d=" M 22 429.5 C 22 395.557 49.557 368 83.5 368 C 117.443 368 145 395.557 145 429.5 C 145 463.443 117.443 491 83.5 491 C 49.557 491 22 463.443 22 429.5 Z " fill="rgb(25,16,6)"/><path d=" M 32.396 429.793 C 32.396 401.911 55.033 379.275 82.914 379.275 C 110.796 379.275 133.432 401.911 133.432 429.793 C 133.432 457.674 110.796 480.311 82.914 480.311 C 55.033 480.311 32.396 457.674 32.396 429.793 Z " fill="rgb(74,50,10)"/><rect x="32.396" y="384.254" width="101.036" height="44.88" transform="matrix(1,0,0,1,0,0)" fill="rgb(74,50,10)"/><path d=" M 32.396 384.254 C 32.396 356.372 55.033 333.736 82.914 333.736 C 110.796 333.736 133.432 356.372 133.432 384.254 C 133.432 412.135 110.796 434.771 82.914 434.771 C 55.033 434.771 32.396 412.135 32.396 384.254 Z " fill="rgb(114,74,28)"/><path d=" M 40.542 384.254 C 40.542 360.867 59.528 341.881 82.914 341.881 C 106.3 341.881 125.287 360.867 125.287 384.254 C 125.287 407.64 106.3 426.626 82.914 426.626 C 59.528 426.626 40.542 407.64 40.542 384.254 Z " fill="rgb(55,30,9)"/><path d=" M 47.113 384.254 C 47.113 364.494 63.155 348.452 82.914 348.452 C 102.674 348.452 118.716 364.494 118.716 384.254 C 118.716 404.013 102.674 420.055 82.914 420.055 C 63.155 420.055 47.113 404.013 47.113 384.254 Z " fill="rgb(74,50,10)"/><path d=" M 52.97 384.254 C 52.97 367.727 66.387 354.309 82.914 354.309 C 99.441 354.309 112.859 367.727 112.859 384.254 C 112.859 400.78 99.441 414.198 82.914 414.198 C 66.387 414.198 52.97 400.78 52.97 384.254 Z " fill="rgb(85,61,14)"/><path d=" M 62.671 384.254 C 62.671 373.081 71.741 364.01 82.914 364.01 C 94.087 364.01 103.158 373.081 103.158 384.254 C 103.158 395.426 94.087 404.497 82.914 404.497 C 71.741 404.497 62.671 395.426 62.671 384.254 Z " fill="rgb(120,92,27)"/><path d=" M 68.528 384.254 C 68.528 376.313 74.974 369.867 82.914 369.867 C 90.854 369.867 97.301 376.313 97.301 384.254 C 97.301 392.194 90.854 398.64 82.914 398.64 C 74.974 398.64 68.528 392.194 68.528 384.254 Z " fill="rgb(118,55,45)"/><path d=" M 74.385 384.254 C 74.385 379.546 78.207 375.724 82.914 375.724 C 87.622 375.724 91.444 379.546 91.444 384.254 C 91.444 388.961 87.622 392.783 82.914 392.783 C 78.207 392.783 74.385 388.961 74.385 384.254 Z " fill="rgb(150,82,19)"/></g><line x1="65" y1="462" x2="65" y2="442" vector-effect="non-scaling-stroke" stroke-width="10" stroke="rgb(25,16,6)" stroke-linejoin="miter" stroke-linecap="round" stroke-miterlimit="3"/><line x1="114" y1="470.642" x2="114" y2="463.358" vector-effect="non-scaling-stroke" stroke-width="10" stroke="rgb(25,16,6)" stroke-linejoin="miter" stroke-linecap="round" stroke-miterlimit="3"/><line x1="114" y1="450.642" x2="114" y2="449" vector-effect="non-scaling-stroke" stroke-width="10" stroke="rgb(25,16,6)" stroke-linejoin="miter" stroke-linecap="round" stroke-miterlimit="3"/></g></svg>